<svg width="45" height="45" viewBox="0 0 45 45" fill="none" xmlns="http://www.w3.org/2000/svg">
<g clip-path="url(#clip0_3816_61)">
<rect x="-2" y="8.35278" width="40" height="40" rx="10" transform="rotate(-15 -2 8.35278)" fill="#4535AF"/>
<path d="M19.5 19.3125C19.5 18.1404 20.3969 17.1875 21.5 17.1875H22.5C23.6031 17.1875 24.5 18.1404 24.5 19.3125V19.432C24.5 20.1559 24.1531 20.8299 23.5813 21.2184L22.2625 22.1182C21.8753 22.3827 21.5568 22.7463 21.3362 23.1755C21.1156 23.6048 21 24.0861 21 24.5752V24.625C21 25.2127 21.4469 25.6875 22 25.6875C22.5531 25.6875 23 25.2127 23 24.625V24.5785C23 24.3063 23.1312 24.0539 23.3438 23.9078L24.6625 23.008C25.8062 22.2244 26.5 20.8797 26.5 19.432V19.3125C26.5 16.965 24.7094 15.0625 22.5 15.0625H21.5C19.2906 15.0625 17.5 16.965 17.5 19.3125C17.5 19.9002 17.9469 20.375 18.5 20.375C19.0531 20.375 19.5 19.9002 19.5 19.3125ZM22 29.9375C22.3315 29.9375 22.6495 29.7976 22.8839 29.5485C23.1183 29.2994 23.25 28.9616 23.25 28.6094C23.25 28.2571 23.1183 27.9193 22.8839 27.6703C22.6495 27.4212 22.3315 27.2813 22 27.2813C21.6685 27.2813 21.3505 27.4212 21.1161 27.6703C20.8817 27.9193 20.75 28.2571 20.75 28.6094C20.75 28.9616 20.8817 29.2994 21.1161 29.5485C21.3505 29.7976 21.6685 29.9375 22 29.9375Z" fill="#FBFBFB"/>
</g>
<defs>
<clipPath id="clip0_3816_61">
<rect width="45" height="45" fill="white"/>
</clipPath>
</defs>
</svg>
